<?xml version="1.0" encoding="UTF-8"?>
<svg id="Warstwa_1" data-name="Warstwa 1" xmlns="http://www.w3.org/2000/svg" xmlns:xlink="http://www.w3.org/1999/xlink" viewBox="0 0 24 24">
  <defs>
    <style>
      .cls-1 {
        fill: url(#Gradient_bez_nazwy_2);
      }

      .cls-1, .cls-2 {
        stroke-width: 0px;
      }

      .cls-2 {
        fill: #fff;
      }
    </style>
    <linearGradient id="Gradient_bez_nazwy_2" data-name="Gradient bez nazwy 2" x1="3.14" y1="23.15" x2="22.93" y2="1.87" gradientUnits="userSpaceOnUse">
      <stop offset="0" stop-color="#f1007c"/>
      <stop offset=".14" stop-color="#e70084"/>
      <stop offset=".37" stop-color="#cf009c"/>
      <stop offset=".65" stop-color="#a600c3"/>
      <stop offset=".99" stop-color="#6f00f8"/>
      <stop offset="1" stop-color="#6d00fb"/>
    </linearGradient>
  </defs>
  <path class="cls-1" d="M23.58,15.66c-.52.67-.48,1.66-1.26,2.18-.07.05-.1.25-.06.36.2,1.55-2.29.92-2.82.08-1.08-1.29-2.41-.16-2.93,1.02-.48.83-1.03-.73-1.92.21-.51.38-1.47-.33-1.48.63-.2,3.13,3.81.61,5.36,2.19,4.33,2.7-21.93,1.71-15.66-.05,1.63.31,3.27,1.05,4.91.37.94-.7,3.05-.02,3.25-1.39.03-.54-.49-.54-.85-.56-1.75.23-1.59-2.43-3.31-1.94-.53.09-.9.4-.88,1.01-.3,1.68-3.48.15-4.06-.68-.8-1.24.32-2.15-1.41-3.18-.3-2.26,1.79-2.13,1.68-3.64-.05-.43.12-.68.58-.58.52.02.48-.34.36-.79-.18-.67-.52-1.54.52-1.64,1.07-.22-.02-1.52.69-2.04.4-.25.61-.58.73-.95.35-1.04,0-2.36,1.16-2.94.52-.56.6-1.52,1.63-1.35,1.51.07.59-1.6,2.63-.81.33.07.65.07.71-.31.1-1.1,1.35.3,1.42-.78,1.47-.43,1.9,1.68,3.23,1.51,1.18-.27,1.38,1.2,2.02,1.83.14.14.3.24.49.27,1.52-.07,2.23,1.98,1.76,3.41-.14.43-.38.79-.74,1.04-.27.21-.18.46-.02.68.22.32.55.44.93.51,1.78.14.67,1.93,1.69,2.68.33.23.69.53.6.92-.48,1.34.88,1.76,1.04,2.75Z"/>
  <g>
    <path class="cls-2" d="M18.62,12.44c.82.35,1.3.77,1.3,1.22,0,1.14-3.04,2.08-6.95,2.21l1.04.6c.12.07.12.25,0,.32l-.83.48c4.9-.16,8.71-1.33,8.71-2.77,0-.82-1.26-1.56-3.26-2.07h0Z"/>
    <path class="cls-2" d="M12.01,15.89l-.61-.35-.59-.34c-.14-.08-.31.05-.27.21l.13.45c-3.67-.19-6.46-1.1-6.46-2.19,0-.45.48-.87,1.3-1.22-2,.51-3.26,1.25-3.26,2.07,0,1.41,3.68,2.57,8.47,2.76l-.17.6c-.05.16.12.29.27.21l.59-.34.76-.44.86-.5c.12-.07.12-.25,0-.32l-1.02-.59h0Z"/>
  </g>
  <g>
    <path class="cls-2" d="M9.65,12.02c0,.29-.08.55-.24.76-.16.21-.37.37-.62.47-.26.11-.53.16-.83.16s-.59-.04-.84-.14c-.25-.09-.46-.23-.63-.41-.16-.17-.27-.4-.32-.66l1.06-.26c.03.06.06.13.11.21.04.08.11.15.2.2.09.06.2.09.35.09.2,0,.35-.05.46-.16.12-.1.17-.24.17-.41,0-.1-.02-.2-.07-.29-.05-.09-.14-.17-.27-.22s-.31-.08-.54-.08h-.36v-.91h.36c.29,0,.5-.05.62-.14.12-.1.18-.23.18-.4,0-.1-.02-.19-.06-.26-.05-.08-.12-.13-.2-.18-.08-.04-.18-.07-.29-.07-.08,0-.16.02-.24.05-.09.02-.16.07-.23.14-.07.07-.13.17-.16.3l-1.05-.25c.05-.26.16-.49.34-.67.17-.17.38-.31.62-.4.25-.09.49-.14.75-.14.31,0,.59.06.84.17.25.12.44.28.59.48.15.2.22.44.22.71,0,.23-.06.43-.17.6-.12.17-.27.31-.46.42-.05.03-.11.06-.17.08.09.03.18.08.26.14.19.13.34.29.45.46.11.18.17.38.17.61Z"/>
    <path class="cls-2" d="M13.57,10.99c-.14-.25-.32-.45-.56-.6-.24-.15-.51-.23-.83-.23-.29,0-.54.08-.76.23-.09.06-.16.13-.23.21.03-.36.12-.65.25-.85.18-.28.43-.42.74-.42.12,0,.27.02.43.07.16.04.32.11.46.21l.55-.82c-.2-.14-.43-.25-.68-.33-.24-.07-.5-.11-.76-.11-.38,0-.7.08-.96.24-.27.15-.48.36-.64.63-.16.26-.28.57-.35.9-.07.34-.11.68-.11,1.03,0,.32.04.62.11.89.07.27.18.51.33.72.15.2.34.36.57.48.24.11.52.17.84.17.37,0,.69-.07.96-.2.27-.14.47-.33.62-.57.15-.23.22-.5.22-.81s-.07-.59-.2-.84ZM12.56,12.13c-.05.1-.13.19-.24.25-.1.06-.21.09-.34.09s-.25-.03-.35-.09c-.11-.06-.19-.15-.25-.25-.06-.11-.09-.22-.09-.35,0-.14.03-.26.09-.37.06-.1.14-.19.25-.25.1-.06.22-.1.35-.1s.24.04.34.1c.11.06.19.15.24.25.06.11.09.23.09.37,0,.13-.03.24-.09.35Z"/>
    <path class="cls-2" d="M16.25,13.41c-.4,0-.76-.11-1.07-.33-.31-.22-.56-.51-.73-.89s-.26-.82-.26-1.31.09-.93.26-1.31.42-.68.73-.89c.31-.22.67-.33,1.07-.33s.76.11,1.08.33c.31.22.56.51.74.89.18.38.27.82.27,1.31s-.09.93-.27,1.31-.42.68-.73.89c-.31.22-.67.33-1.08.33ZM16.26,12.39c.19,0,.35-.07.5-.2.15-.13.26-.31.35-.54.08-.23.13-.49.13-.78s-.04-.56-.13-.79-.2-.41-.35-.54c-.15-.13-.32-.2-.51-.2s-.35.07-.5.2c-.14.13-.26.31-.34.54-.08.23-.12.49-.12.79s.04.55.12.78c.08.23.2.41.34.53.15.13.32.19.51.19Z"/>
  </g>
</svg>