<?xml version="1.0" encoding="UTF-8"?>
<svg id="Warstwa_1" data-name="Warstwa 1" xmlns="http://www.w3.org/2000/svg" xmlns:xlink="http://www.w3.org/1999/xlink" viewBox="0 0 123 128">
  <defs>
    <style>
      .cls-1 {
        fill: url(#Gradient_bez_nazwy_2);
      }

      .cls-1, .cls-2 {
        stroke-width: 0px;
      }

      .cls-2 {
        fill: #fff;
      }
    </style>
    <linearGradient id="Gradient_bez_nazwy_2" data-name="Gradient bez nazwy 2" x1="14.41" y1="123.22" x2="119.59" y2="10.17" gradientUnits="userSpaceOnUse">
      <stop offset="0" stop-color="#f1007c"/>
      <stop offset=".14" stop-color="#e70084"/>
      <stop offset=".37" stop-color="#cf009c"/>
      <stop offset=".65" stop-color="#a600c3"/>
      <stop offset=".99" stop-color="#6f00f8"/>
      <stop offset="1" stop-color="#6d00fb"/>
    </linearGradient>
  </defs>
  <path class="cls-1" d="M123,83.45c-2.75,3.56-2.55,8.81-6.69,11.6-.39.26-.51,1.34-.34,1.92,1.04,8.21-12.18,4.89-14.99.4-5.75-6.83-12.81-.84-15.58,5.41-2.54,4.41-5.45-3.89-10.2,1.1-2.71,2.04-7.79-1.73-7.84,3.35-1.05,16.65,20.22,3.24,28.46,11.64,23.02,14.34-116.47,9.11-83.17-.29,8.66,1.67,17.39,5.56,26.09,1.98,4.99-3.72,16.22-.13,17.25-7.37.18-2.88-2.6-2.89-4.49-2.96-9.31,1.21-8.46-12.93-17.6-10.29-2.84.49-4.78,2.1-4.66,5.35-1.62,8.93-18.48.78-21.59-3.6-4.24-6.6,1.68-11.42-7.49-16.87-1.62-12.03,9.52-11.3,8.92-19.36-.27-2.3.63-3.6,3.1-3.1,2.75.13,2.54-1.81,1.91-4.22-.93-3.58-2.78-8.2,2.75-8.73,5.71-1.15-.11-8.08,3.69-10.85,2.1-1.34,3.22-3.1,3.88-5.05,1.86-5.51.04-12.54,6.18-15.64,2.77-2.96,3.2-8.08,8.65-7.18,8.03.35,3.13-8.51,13.96-4.29,1.73.39,3.46.39,3.79-1.67.55-5.83,7.19,1.57,7.56-4.17,7.83-2.28,10.08,8.92,17.18,8.03,6.27-1.44,7.32,6.36,10.75,9.74.74.73,1.59,1.25,2.62,1.43,8.06-.37,11.86,10.54,9.35,18.12-.74,2.26-2.04,4.22-3.95,5.5-1.46,1.12-.93,2.44-.1,3.62,1.19,1.68,2.94,2.32,4.93,2.71,9.45.75,3.58,10.23,8.97,14.22,1.74,1.2,3.68,2.81,3.19,4.91-2.56,7.11,4.66,9.34,5.51,14.61Z"/>
  <g>
    <path class="cls-2" d="M96.66,66.36c4.35,1.87,6.88,4.1,6.88,6.51,0,6.07-16.14,11.07-36.92,11.74l5.53,3.19c.65.38.65,1.32,0,1.69l-4.43,2.56c26.03-.83,46.26-7.09,46.26-14.69,0-4.37-6.69-8.3-17.33-11h0Z"/>
    <path class="cls-2" d="M61.54,84.69l-3.24-1.87-3.13-1.81c-.76-.44-1.67.27-1.42,1.11l.69,2.38c-19.5-.99-34.3-5.82-34.3-11.64,0-2.4,2.53-4.64,6.88-6.51-10.64,2.71-17.33,6.63-17.33,11,0,7.47,19.57,13.65,44.97,14.64l-.91,3.17c-.24.84.66,1.55,1.42,1.11l3.13-1.81,4.05-2.34,4.59-2.65c.65-.37.65-1.31,0-1.69l-5.4-3.12h0Z"/>
  </g>
  <g>
    <path class="cls-2" d="M49.01,64.07c0,1.59-.42,2.94-1.26,4.05-.84,1.11-1.94,1.96-3.3,2.53-1.36.56-2.82.85-4.38.85-1.64,0-3.13-.25-4.48-.74-1.35-.5-2.46-1.22-3.34-2.18-.88-.95-1.45-2.12-1.72-3.5l5.64-1.38c.15.3.34.66.57,1.08.24.42.59.79,1.06,1.1.47.3,1.1.46,1.9.46,1.03,0,1.85-.28,2.45-.84.59-.55.89-1.29.89-2.21,0-.54-.13-1.05-.39-1.54-.26-.48-.73-.86-1.41-1.15-.69-.28-1.64-.42-2.88-.42h-1.93v-4.83h1.93c1.56,0,2.66-.26,3.3-.78.65-.52.97-1.22.97-2.11,0-.52-.13-.98-.37-1.38-.25-.39-.6-.71-1.04-.95-.45-.23-.96-.35-1.52-.35-.43,0-.86.08-1.3.22-.45.15-.86.41-1.23.78-.37.38-.66.91-.85,1.6l-5.57-1.34c.27-1.41.87-2.59,1.8-3.54s2.03-1.67,3.32-2.15c1.29-.49,2.61-.73,3.97-.73,1.64,0,3.12.31,4.44.91,1.32.61,2.38,1.45,3.16,2.53.78,1.07,1.16,2.33,1.16,3.76,0,1.24-.3,2.31-.9,3.2-.61.89-1.42,1.62-2.42,2.21-.27.16-.56.31-.85.44.46.22.9.48,1.32.76,1.01.69,1.81,1.51,2.39,2.45.58.94.87,2.01.87,3.19Z"/>
    <path class="cls-2" d="M69.84,58.62c-.72-1.34-1.71-2.4-2.97-3.2-1.26-.79-2.72-1.18-4.38-1.18-1.56,0-2.91.39-4.05,1.18-.47.33-.88.69-1.25,1.1.19-1.92.64-3.41,1.33-4.45.99-1.5,2.3-2.25,3.93-2.25.67,0,1.44.12,2.3.35.87.24,1.69.61,2.45,1.13l2.9-4.38c-1.07-.74-2.25-1.31-3.57-1.7-1.31-.4-2.67-.6-4.08-.6-2,0-3.71.42-5.1,1.25-1.4.83-2.53,1.94-3.38,3.36-.86,1.41-1.47,3-1.86,4.78-.38,1.79-.57,3.62-.57,5.5,0,1.68.19,3.25.57,4.69.39,1.45.97,2.72,1.77,3.81.79,1.09,1.8,1.94,3.04,2.56s2.72.93,4.45.93c1.96,0,3.65-.37,5.07-1.1,1.42-.73,2.53-1.72,3.31-2.98.78-1.27,1.17-2.7,1.17-4.31s-.36-3.16-1.08-4.49ZM64.51,64.69c-.31.55-.74.99-1.28,1.31-.54.33-1.15.49-1.82.49s-1.32-.16-1.87-.49c-.56-.32-1-.76-1.32-1.31-.32-.56-.48-1.18-.48-1.88s.16-1.36.48-1.93c.32-.57.76-1.02,1.32-1.35.55-.34,1.18-.5,1.87-.5s1.28.16,1.82.5c.54.33.97.78,1.28,1.35.31.57.47,1.21.47,1.93s-.16,1.32-.47,1.88Z"/>
    <path class="cls-2" d="M84.1,71.5c-2.13,0-4.02-.58-5.68-1.73-1.66-1.15-2.95-2.73-3.88-4.75s-1.39-4.34-1.39-6.96.46-4.94,1.39-6.96c.93-2.02,2.21-3.6,3.86-4.75,1.65-1.15,3.53-1.73,5.66-1.73s4.06.58,5.72,1.73c1.66,1.15,2.96,2.73,3.92,4.75.95,2.02,1.43,4.34,1.43,6.96s-.47,4.94-1.41,6.96-2.24,3.6-3.9,4.75c-1.66,1.15-3.56,1.73-5.72,1.73ZM84.14,66.08c.99,0,1.87-.35,2.65-1.04.78-.69,1.39-1.64,1.84-2.84s.67-2.58.67-4.14-.22-2.98-.67-4.19-1.06-2.17-1.86-2.86c-.79-.69-1.7-1.04-2.71-1.04s-1.87.35-2.64,1.04c-.77.69-1.37,1.65-1.8,2.86-.43,1.21-.65,2.61-.65,4.19s.22,2.95.65,4.16c.43,1.21,1.04,2.16,1.82,2.84.78.68,1.68,1.02,2.69,1.02Z"/>
  </g>
</svg>